<?xml version="1.0" encoding="utf-8"?>
<!-- Generator: Adobe Illustrator 23.0.3, SVG Export Plug-In . SVG Version: 6.00 Build 0)  -->
<svg version="1.1" id="Layer_1" xmlns="http://www.w3.org/2000/svg" xmlns:xlink="http://www.w3.org/1999/xlink" x="0px" y="0px"
	 viewBox="0 0 340.16 170.08" style="enable-background:new 0 0 340.16 170.08;" xml:space="preserve">
<style type="text/css">
	.st0{fill:#00A651;}
	.st1{fill:#8DC63F;}
	.st2{fill:#FFF200;}
	.st3{fill:#F7941D;}
	.st4{fill:#ED1C24;}
</style>
<path class="st0" d="M307.69,70.1c20.42,28.06,32.47,62.61,32.47,99.98h-85.04c0-18.68-6.02-35.96-16.24-49.99"/>
<path class="st1" d="M222.65,8.28c5.54,1.8,10.96,3.88,16.23,6.21c27.56,12.2,51.27,31.52,68.8,55.61l-68.8,49.99
	c-10.45-14.35-25.28-25.31-42.52-30.91L222.65,8.28z"/>
<path class="st2" d="M222.65,8.28C206.09,2.91,188.43,0,170.08,0s-36.02,2.91-52.57,8.28l26.29,80.9
	c8.28-2.69,17.11-4.14,26.28-4.14c9.17,0,18,1.45,26.28,4.14L222.65,8.28z"/>
<path class="st3" d="M117.51,8.28C83.02,19.48,53.36,41.4,32.47,70.1l68.8,49.99c10.45-14.35,25.28-25.31,42.52-30.91L117.51,8.28z"
	/>
<path class="st4" d="M101.28,120.09c-10.21,14.03-16.24,31.31-16.24,49.99H0c0-37.36,12.05-71.91,32.47-99.98L101.28,120.09z"/>
</svg>
